<svg width="14" height="14" viewBox="0 0 14 14" fill="none" xmlns="http://www.w3.org/2000/svg">
<path d="M7.00016 1.16699C4.55016 1.16699 2.3335 3.04533 2.3335 5.95033C2.3335 7.80533 3.76266 9.98699 6.61516 12.5012C6.83683 12.6937 7.16933 12.6937 7.391 12.5012C10.2377 9.98699 11.6668 7.80533 11.6668 5.95033C11.6668 3.04533 9.45016 1.16699 7.00016 1.16699ZM7.00016 7.00033C6.3585 7.00033 5.8335 6.47533 5.8335 5.83366C5.8335 5.19199 6.3585 4.66699 7.00016 4.66699C7.64183 4.66699 8.16683 5.19199 8.16683 5.83366C8.16683 6.47533 7.64183 7.00033 7.00016 7.00033Z" fill="#BDBDBD"/>
</svg>
